<?xml version="1.0" encoding="UTF-8" standalone="no"?>
<!-- Created with Inkscape (http://www.inkscape.org/) -->

<svg
   width="140mm"
   height="120mm"
   viewBox="0 0 140 120"
   version="1.1"
   id="svg4599"
   sodipodi:docname="cat_jump_v2_1.svg"
   inkscape:version="1.2.2 (732a01da63, 2022-12-09)"
   xml:space="preserve"
   xmlns:inkscape="http://www.inkscape.org/namespaces/inkscape"
   xmlns:sodipodi="http://sodipodi.sourceforge.net/DTD/sodipodi-0.dtd"
   xmlns="http://www.w3.org/2000/svg"
   xmlns:svg="http://www.w3.org/2000/svg"><sodipodi:namedview
     id="namedview4601"
     pagecolor="#ffffff"
     bordercolor="#000000"
     borderopacity="0.25"
     inkscape:showpageshadow="2"
     inkscape:pageopacity="0.0"
     inkscape:pagecheckerboard="0"
     inkscape:deskcolor="#d1d1d1"
     inkscape:document-units="mm"
     showgrid="false"
     inkscape:zoom="0.70710678"
     inkscape:cx="-25.455844"
     inkscape:cy="165.46299"
     inkscape:window-width="1920"
     inkscape:window-height="1009"
     inkscape:window-x="-8"
     inkscape:window-y="-8"
     inkscape:window-maximized="1"
     inkscape:current-layer="layer1" /><defs
     id="defs4596" /><g
     inkscape:label="Layer 1"
     inkscape:groupmode="layer"
     id="layer1"><path
       style="fill:#111122;fill-opacity:1;stroke:none;stroke-width:0;stroke-linecap:round;stroke-linejoin:round;stroke-dasharray:none"
       d="m 19.708792,101.54304 -15.9591625,4.53173 -13.8142285,-5.88361 -0.0066,-8.260999 L 2.7950205,97.876087 11.683644,95.897082 22.866583,93.558961 33.245014,86.774559 41.979933,69.867161 62.508334,47.14595 95.920545,28.734868 99.22871,18.665581 111.26959,7.0420002 l 0.68678,11.0479568 6.76784,2.037328 6.37659,9.484413 -4.49086,6.816361 -10.00727,2.001582 -2.14587,4.066402 9.83671,2.349571 18.72684,5.152218 -5.44489,5.943682 -25.01484,-4.060833 23.61839,9.469692 -8.21925,7.768551 -21.19955,-9.99901 -28.423462,18.823929 -5.876769,23.070417 -1.022151,10.94334 -16.402762,23.77024 -11.02001,0.60143 10.073159,-14.56124 3.533382,-13.30995 -6.702015,12.7495 -21.185635,16.71001 -5.700496,-6.87425 19.931488,-17.34286 -3.937396,-8.84444 0.677515,-5.852479 z"
       id="path47507"
       sodipodi:nodetypes="cccccccccccccccccccccccccccccccccccccccc" /><path
       style="fill:#f9de00;fill-opacity:1;stroke:#ffffff;stroke-width:0;stroke-linecap:round;stroke-linejoin:round;stroke-dasharray:none"
       d="m 110.77125,22.67465 6.18299,-0.842975 4.09092,3.893489 -3.81801,0.978889 z"
       id="path96189"
       sodipodi:nodetypes="ccccc" /></g></svg>
