<?xml version="1.0" encoding="UTF-8" standalone="no"?>
<!-- Created with Inkscape (http://www.inkscape.org/) -->

<svg
   width="130mm"
   height="375mm"
   viewBox="0 0 130 375"
   version="1.1"
   id="svg4599"
   sodipodi:docname="broom_moving_v1_1.svg"
   inkscape:version="1.2.2 (732a01da63, 2022-12-09)"
   xml:space="preserve"
   xmlns:inkscape="http://www.inkscape.org/namespaces/inkscape"
   xmlns:sodipodi="http://sodipodi.sourceforge.net/DTD/sodipodi-0.dtd"
   xmlns="http://www.w3.org/2000/svg"
   xmlns:svg="http://www.w3.org/2000/svg"><sodipodi:namedview
     id="namedview4601"
     pagecolor="#ffffff"
     bordercolor="#000000"
     borderopacity="0.25"
     inkscape:showpageshadow="2"
     inkscape:pageopacity="0.0"
     inkscape:pagecheckerboard="0"
     inkscape:deskcolor="#d1d1d1"
     inkscape:document-units="mm"
     showgrid="false"
     inkscape:zoom="2"
     inkscape:cx="262.75"
     inkscape:cy="137"
     inkscape:window-width="1920"
     inkscape:window-height="1009"
     inkscape:window-x="-8"
     inkscape:window-y="-8"
     inkscape:window-maximized="1"
     inkscape:current-layer="layer1" /><defs
     id="defs4596" /><g
     inkscape:label="Layer 1"
     inkscape:groupmode="layer"
     id="layer1"><path
       style="fill:#ba6b62;fill-opacity:1;stroke:#1e1e27;stroke-width:2;stroke-linecap:round;stroke-linejoin:round;stroke-opacity:1"
       d="M 98.552614,4.3193895 101.4954,76.056533 97.622299,137.29791 83.51438,245.89706 l -8.865139,-4.69791 1.386723,16.6865 -2.519542,6.02304 -53.44733,69.65858 15.732581,17.27162 28.077964,-38.92797 -21.721803,40.62646 22.266335,9.70135 15.659222,-35.90784 -11.779737,37.44945 15.27647,3.13737 5.818459,-57.06333 -1.892742,60.4248 19.225219,1.67034 -18.351343,-102.96298 -14.044738,-4.19468 14.026344,4.0738 1.320541,-6.43526 -12.508011,-4.12385 12.509924,4.02918 10.849603,-13.96563 -9.492833,0.38448 L 106.554,147.71915 112.27119,68.060245 108.07383,0.99996218 Z"
       id="path71898"
       sodipodi:nodetypes="cccccccccccccccccccccccccccccc" /></g></svg>
