<?xml version="1.0" encoding="UTF-8" standalone="no"?>
<!-- Created with Inkscape (http://www.inkscape.org/) -->

<svg
   width="150mm"
   height="140mm"
   viewBox="0 0 150 140"
   version="1.1"
   id="svg4599"
   sodipodi:docname="cat_jump_v3_1.svg"
   inkscape:version="1.2.2 (732a01da63, 2022-12-09)"
   xml:space="preserve"
   xmlns:inkscape="http://www.inkscape.org/namespaces/inkscape"
   xmlns:sodipodi="http://sodipodi.sourceforge.net/DTD/sodipodi-0.dtd"
   xmlns="http://www.w3.org/2000/svg"
   xmlns:svg="http://www.w3.org/2000/svg"><sodipodi:namedview
     id="namedview4601"
     pagecolor="#ffffff"
     bordercolor="#000000"
     borderopacity="0.25"
     inkscape:showpageshadow="2"
     inkscape:pageopacity="0.0"
     inkscape:pagecheckerboard="0"
     inkscape:deskcolor="#d1d1d1"
     inkscape:document-units="mm"
     showgrid="false"
     inkscape:zoom="0.70710678"
     inkscape:cx="-25.455844"
     inkscape:cy="165.46299"
     inkscape:window-width="1920"
     inkscape:window-height="1009"
     inkscape:window-x="-8"
     inkscape:window-y="-8"
     inkscape:window-maximized="1"
     inkscape:current-layer="layer1" /><defs
     id="defs4596" /><g
     inkscape:label="Layer 1"
     inkscape:groupmode="layer"
     id="layer1"><path
       style="fill:#111122;fill-opacity:1;stroke:none;stroke-width:0;stroke-linecap:round;stroke-linejoin:round;stroke-dasharray:none"
       d="m 30.559935,95.556203 -15.959163,4.531727 -13.81422822,-5.883607 -0.0066,-8.260999 12.86621922,5.945926 8.888624,-1.979005 11.182939,-2.338121 10.378431,-6.784402 8.734919,-16.907398 20.528401,-22.721211 33.412213,-18.411082 3.30816,-10.069287 12.04088,-11.6235812 0.68678,11.0479572 6.76784,2.037328 6.37659,9.484413 -4.49086,6.816361 -10.00727,2.001582 -2.14587,4.066402 9.08836,3.84628 15.35924,7.77146 -5.07071,5.943682 -21.27307,-8.176784 25.1151,15.456529 -8.59343,3.278423 -22.32208,-11.495719 -28.423459,18.823929 -5.876769,23.070417 -1.022151,10.943337 -24.634663,30.04046 -11.02001,0.60143 18.30506,-20.83146 3.533382,-13.30995 -6.702015,12.7495 -29.417536,22.98023 -5.700496,-6.87425 28.163389,-23.61308 -3.937396,-8.844437 0.677515,-5.852479 z"
       id="path47507"
       sodipodi:nodetypes="cccccccccccccccccccccccccccccccccccccccc" /><path
       style="fill:#f9de00;fill-opacity:1;stroke:#ffffff;stroke-width:0;stroke-linecap:round;stroke-linejoin:round;stroke-dasharray:none"
       d="m 121.62239,16.687813 6.18299,-0.842975 4.09092,3.893489 -3.81801,0.978889 z"
       id="path96189"
       sodipodi:nodetypes="ccccc" /></g></svg>
