<?xml version="1.0" encoding="UTF-8" standalone="no"?>
<!-- Created with Inkscape (http://www.inkscape.org/) -->

<svg
   width="160mm"
   height="120mm"
   viewBox="0 0 160 120"
   version="1.1"
   id="svg4599"
   sodipodi:docname="cat_walk_v2_3.svg"
   inkscape:version="1.2.2 (732a01da63, 2022-12-09)"
   xml:space="preserve"
   xmlns:inkscape="http://www.inkscape.org/namespaces/inkscape"
   xmlns:sodipodi="http://sodipodi.sourceforge.net/DTD/sodipodi-0.dtd"
   xmlns="http://www.w3.org/2000/svg"
   xmlns:svg="http://www.w3.org/2000/svg"><sodipodi:namedview
     id="namedview4601"
     pagecolor="#ffffff"
     bordercolor="#000000"
     borderopacity="0.25"
     inkscape:showpageshadow="2"
     inkscape:pageopacity="0.0"
     inkscape:pagecheckerboard="0"
     inkscape:deskcolor="#d1d1d1"
     inkscape:document-units="mm"
     showgrid="false"
     inkscape:zoom="0.52221046"
     inkscape:cx="-356.17824"
     inkscape:cy="543.84204"
     inkscape:window-width="1920"
     inkscape:window-height="1009"
     inkscape:window-x="-8"
     inkscape:window-y="-8"
     inkscape:window-maximized="1"
     inkscape:current-layer="layer1" /><defs
     id="defs4596" /><g
     inkscape:label="Layer 1"
     inkscape:groupmode="layer"
     id="layer1"><path
       style="fill:#111122;fill-opacity:1;stroke:none;stroke-width:0;stroke-linecap:round;stroke-linejoin:round;stroke-dasharray:none"
       d="M 26.611264,0.27579752 15.720756,9.1423666 13.782681,23.027739 l 4.381001,11.195018 5.509276,17.376441 -0.717216,14.683986 5.097556,11.213563 -6.211613,17.689697 8.947002,23.779436 10.191139,-0.4836 -0.874928,-6.23268 -2.256738,-13.712206 8.694223,-14.117575 6.79181,0.451149 30.105644,-0.551863 -10.820943,27.012645 0.575942,5.17066 6.780343,1.05725 0.669676,-3.62692 14.843682,-22.683798 11.503733,3.685359 16.21957,23.249259 15.95419,0.5182 -2.08986,-4.75389 -9.84028,-2.95044 -5.52989,-21.630179 8.30205,-15.641211 18.79382,5.3218 6.38433,-5.548734 -1.94627,-11.098531 -5.85508,-4.410712 4.40098,-10.511926 -16.68997,6.456531 L 111.45129,49.955032 80.847702,41.5359 42.685297,43.325922 35.258318,42.685711 26.337833,28.411708 25.227753,12.894843 32.034045,4.3968295 Z"
       id="path47507"
       sodipodi:nodetypes="ccccccccccccccccccccccccccccccccccccccccc" /></g></svg>
