<?xml version="1.0" encoding="UTF-8" standalone="no"?>
<!-- Created with Inkscape (http://www.inkscape.org/) -->

<svg
   width="100mm"
   height="140mm"
   viewBox="0 0 100 140"
   version="1.1"
   id="svg4599"
   sodipodi:docname="cat_grab_v1_1.svg"
   inkscape:version="1.2.2 (732a01da63, 2022-12-09)"
   xml:space="preserve"
   xmlns:inkscape="http://www.inkscape.org/namespaces/inkscape"
   xmlns:sodipodi="http://sodipodi.sourceforge.net/DTD/sodipodi-0.dtd"
   xmlns="http://www.w3.org/2000/svg"
   xmlns:svg="http://www.w3.org/2000/svg"><sodipodi:namedview
     id="namedview4601"
     pagecolor="#ffffff"
     bordercolor="#000000"
     borderopacity="0.25"
     inkscape:showpageshadow="2"
     inkscape:pageopacity="0.0"
     inkscape:pagecheckerboard="0"
     inkscape:deskcolor="#d1d1d1"
     inkscape:document-units="mm"
     showgrid="false"
     inkscape:zoom="1"
     inkscape:cx="-65"
     inkscape:cy="285"
     inkscape:window-width="1920"
     inkscape:window-height="1009"
     inkscape:window-x="-8"
     inkscape:window-y="-8"
     inkscape:window-maximized="1"
     inkscape:current-layer="layer1" /><defs
     id="defs4596" /><g
     inkscape:label="Layer 1"
     inkscape:groupmode="layer"
     id="layer1"><path
       style="fill:#111122;fill-opacity:1;stroke:none;stroke-width:0;stroke-linecap:round;stroke-linejoin:round;stroke-dasharray:none"
       d="m 42.248772,133.46687 12.002069,-3.71075 7.761664,-11.67791 -8.447624,-20.678863 1.130378,-11.983698 9.043947,-0.993258 10.548316,33.281419 7.231172,0.90505 L 73.039047,69.043563 80.532383,45.330495 84.951543,4.9017956 77.979242,2.0664796 72.333746,38.849028 69.73684,42.742148 71.209306,29.09007 74.447459,7.8150716 59.93373,20.686885 43.4048,19.757759 29.811974,5.6626086 32.289047,27.499154 31.102639,39.405306 24.739926,0.53317792 17.07719,2.2474086 l 5.806252,43.0041774 6.998902,24.421518 -5.455671,49.709756 8.996042,-3.29749 6.166097,-34.851721 6.367267,3.884099 -1.256236,13.992324 8.158044,18.472298 -12.812937,9.94472 z"
       id="path47507"
       sodipodi:nodetypes="ccccccccccccccccccccccccccccccccc" /></g></svg>
