<?xml version="1.0" encoding="UTF-8" standalone="no"?>
<!-- Created with Inkscape (http://www.inkscape.org/) -->

<svg
   width="160mm"
   height="120mm"
   viewBox="0 0 160 120"
   version="1.1"
   id="svg4599"
   sodipodi:docname="cat_eat_v2_1.svg"
   inkscape:version="1.2.2 (732a01da63, 2022-12-09)"
   xml:space="preserve"
   xmlns:inkscape="http://www.inkscape.org/namespaces/inkscape"
   xmlns:sodipodi="http://sodipodi.sourceforge.net/DTD/sodipodi-0.dtd"
   xmlns="http://www.w3.org/2000/svg"
   xmlns:svg="http://www.w3.org/2000/svg"><sodipodi:namedview
     id="namedview4601"
     pagecolor="#ffffff"
     bordercolor="#000000"
     borderopacity="0.25"
     inkscape:showpageshadow="2"
     inkscape:pageopacity="0.0"
     inkscape:pagecheckerboard="0"
     inkscape:deskcolor="#d1d1d1"
     inkscape:document-units="mm"
     showgrid="false"
     inkscape:zoom="1"
     inkscape:cx="490.5"
     inkscape:cy="288"
     inkscape:window-width="1920"
     inkscape:window-height="1009"
     inkscape:window-x="-8"
     inkscape:window-y="-8"
     inkscape:window-maximized="1"
     inkscape:current-layer="layer1" /><defs
     id="defs4596" /><g
     inkscape:label="Layer 1"
     inkscape:groupmode="layer"
     id="layer1"><path
       style="fill:#111122;fill-opacity:1;stroke:none;stroke-width:0;stroke-linecap:round;stroke-linejoin:round;stroke-dasharray:none"
       d="M 30.540126,0.64997486 24.607468,5.7747706 20.23724,16.760269 l 2.042393,20.081729 1.393325,14.7572 -0.717216,14.683986 5.097556,11.213563 -6.211613,17.689697 8.947002,23.779436 10.191139,-0.4836 -0.874928,-6.23268 -2.256738,-13.712206 8.694223,-14.117575 6.79181,0.451149 37.778561,8.880065 5.054057,20.358847 0.575942,5.17066 9.095447,0.49501 -1.64542,-3.06468 -1.5926,-18.83633 3.83082,3.42078 4.61001,17.81429 12.25002,0.12132 -2.08986,-4.75389 -4.54861,-2.95044 -0.0511,-10.74466 7.5404,-0.19129 12.7538,12.32385 2.16347,0.0183 -0.87603,-2.80118 0.98816,-3.0341 2.13003,5.73189 4.88912,-0.43661 4.66831,-14.273525 -4.79674,-10.760712 5.45931,-7.866093 -17.21914,3.281531 L 112.57386,71.843461 80.847702,60.056733 42.685297,43.325922 35.258318,42.685711 28.395808,28.598797 28.408261,15.888262 34.559742,1.1227778 Z"
       id="path47507"
       sodipodi:nodetypes="ccccccccccccccccccccccccccccccccccccccccccccc" /><path
       style="fill:#f9de00;fill-opacity:1;stroke:none;stroke-width:0;stroke-linecap:round;stroke-linejoin:round;stroke-dasharray:none"
       d="m 142.44767,102.21426 3.54954,0.29844 0.46887,5.97577 -3.48914,-1.95494 z"
       id="path95459"
       sodipodi:nodetypes="ccccc" /></g></svg>
