<?xml version="1.0" encoding="UTF-8" standalone="no"?>
<!-- Created with Inkscape (http://www.inkscape.org/) -->

<svg
   width="100mm"
   height="140mm"
   viewBox="0 0 100 140"
   version="1.1"
   id="svg4599"
   sodipodi:docname="cat_fall_v1_1.svg"
   inkscape:version="1.2.2 (732a01da63, 2022-12-09)"
   xml:space="preserve"
   xmlns:inkscape="http://www.inkscape.org/namespaces/inkscape"
   xmlns:sodipodi="http://sodipodi.sourceforge.net/DTD/sodipodi-0.dtd"
   xmlns="http://www.w3.org/2000/svg"
   xmlns:svg="http://www.w3.org/2000/svg"><sodipodi:namedview
     id="namedview4601"
     pagecolor="#ffffff"
     bordercolor="#000000"
     borderopacity="0.25"
     inkscape:showpageshadow="2"
     inkscape:pageopacity="0.0"
     inkscape:pagecheckerboard="0"
     inkscape:deskcolor="#d1d1d1"
     inkscape:document-units="mm"
     showgrid="false"
     inkscape:zoom="1"
     inkscape:cx="245"
     inkscape:cy="216"
     inkscape:window-width="1920"
     inkscape:window-height="1009"
     inkscape:window-x="-8"
     inkscape:window-y="-8"
     inkscape:window-maximized="1"
     inkscape:current-layer="layer1" /><defs
     id="defs4596" /><g
     inkscape:label="Layer 1"
     inkscape:groupmode="layer"
     id="layer1"><path
       style="fill:#111122;fill-opacity:1;stroke:none;stroke-width:0;stroke-linecap:round;stroke-linejoin:round;stroke-dasharray:none"
       d="M 21.550378,39.835547 29.708423,21.363252 16.895485,11.418537 19.941203,0.33380556 34.188337,9.9378586 40.359746,20.119065 31.126219,43.242841 32.6284,63.355143 l 12.46245,4.456864 6.139509,3.108266 1.702533,-11.403119 3.773306,-19.555206 5.650187,11.548896 13.750805,6.082332 12.534493,-8.803483 -4.726031,17.470919 -5.100893,9.260232 -7.773814,21.655148 4.099351,12.484918 11.429685,21.84101 -8.102671,1.38546 -16.751205,-29.34761 3.206712,32.37955 -8.731459,0.14209 -2.588714,-30.69977 -12.548152,-4.33009 -4.65749,0.10593 -4.522017,5.60334 -5.169642,-0.74129 3.718877,-5.47368 -4.320892,1.79546 -9.933035,22.79762 -6.069777,-4.7837 11.57471,-43.52739 z"
       id="path47507"
       sodipodi:nodetypes="ccccccccccccccccccccccccccccccccccc" /><path
       style="fill:#f9de00;fill-opacity:1;stroke:none;stroke-width:0;stroke-linecap:round;stroke-linejoin:round;stroke-dasharray:none"
       d="m 79.382948,73.093601 -3.327587,-4.288688 -4.646158,-0.318111 1.501858,3.978888 z"
       id="path95459"
       sodipodi:nodetypes="ccccc" /><path
       style="fill:#f9de00;fill-opacity:1;stroke:none;stroke-width:0;stroke-linecap:round;stroke-linejoin:round;stroke-dasharray:none"
       d="m 59.268789,61.6694 6.201098,0.697347 3.012486,4.777006 -3.941475,0.01377 z"
       id="path96189"
       sodipodi:nodetypes="ccccc" /></g></svg>
