<?xml version="1.0" encoding="UTF-8" standalone="no"?>
<!-- Created with Inkscape (http://www.inkscape.org/) -->

<svg
   width="130mm"
   height="130mm"
   viewBox="0 0 130 130"
   version="1.1"
   id="svg4599"
   sodipodi:docname="cat_jump_v4_1.svg"
   inkscape:version="1.2.2 (732a01da63, 2022-12-09)"
   xml:space="preserve"
   xmlns:inkscape="http://www.inkscape.org/namespaces/inkscape"
   xmlns:sodipodi="http://sodipodi.sourceforge.net/DTD/sodipodi-0.dtd"
   xmlns="http://www.w3.org/2000/svg"
   xmlns:svg="http://www.w3.org/2000/svg"><sodipodi:namedview
     id="namedview4601"
     pagecolor="#ffffff"
     bordercolor="#000000"
     borderopacity="0.25"
     inkscape:showpageshadow="2"
     inkscape:pageopacity="0.0"
     inkscape:pagecheckerboard="0"
     inkscape:deskcolor="#d1d1d1"
     inkscape:document-units="mm"
     showgrid="false"
     inkscape:zoom="0.5"
     inkscape:cx="-138"
     inkscape:cy="442"
     inkscape:window-width="1920"
     inkscape:window-height="1009"
     inkscape:window-x="-8"
     inkscape:window-y="-8"
     inkscape:window-maximized="1"
     inkscape:current-layer="layer1" /><defs
     id="defs4596" /><g
     inkscape:label="Layer 1"
     inkscape:groupmode="layer"
     id="layer1"><path
       style="fill:#111122;fill-opacity:1;stroke:none;stroke-width:0;stroke-linecap:round;stroke-linejoin:round;stroke-dasharray:none"
       d="M 31.859484,82.395798 15.900321,86.927525 2.2731837,79.173031 2.0794947,72.782919 14.945712,78.728845 23.834336,76.74984 35.017275,74.411719 42.776465,73.239977 61.052907,57.080934 79.89751,32.863013 94.600856,23.806365 97.909016,13.737078 109.94989,2.1134962 l 0.68678,11.0479578 6.76784,2.037328 6.37659,9.484413 -4.49086,6.816361 -10.00727,2.001582 -2.14587,4.066402 13.01722,1.414127 8.29526,7.60707 -2.66513,4.766353 -7.28133,-6.307436 -13.26219,1.904524 12.23958,2.984827 6.70159,7.420309 -2.98077,6.084752 -7.51179,-8.936812 -14.249014,-0.313843 -7.09536,11.153294 -31.32082,21.012441 -6.765489,16.743094 -26.692638,25.73741 -3.162286,-4.63704 19.053415,-22.14109 2.889117,-12.930266 -5.309392,12.931086 -19.501836,20.36099 -5.513407,-3.88084 17.686423,-20.619654 3.540643,-9.076926 -2.160914,-4.20078 z"
       id="path47507"
       sodipodi:nodetypes="ccccccccccccccccccccccccccccccccccccccccccc" /><path
       style="fill:#f9de00;fill-opacity:1;stroke:#ffffff;stroke-width:0;stroke-linecap:round;stroke-linejoin:round;stroke-dasharray:none"
       d="m 109.45155,17.746147 6.18299,-0.842975 4.09092,3.893489 -3.81801,0.978889 z"
       id="path96189"
       sodipodi:nodetypes="ccccc" /></g></svg>
