<?xml version="1.0" encoding="UTF-8" standalone="no"?>
<!-- Created with Inkscape (http://www.inkscape.org/) -->

<svg
   width="140mm"
   height="120mm"
   viewBox="0 0 140 120"
   version="1.1"
   id="svg4599"
   sodipodi:docname="cat_jump_v1_1.svg"
   inkscape:version="1.2.2 (732a01da63, 2022-12-09)"
   xml:space="preserve"
   xmlns:inkscape="http://www.inkscape.org/namespaces/inkscape"
   xmlns:sodipodi="http://sodipodi.sourceforge.net/DTD/sodipodi-0.dtd"
   xmlns="http://www.w3.org/2000/svg"
   xmlns:svg="http://www.w3.org/2000/svg"><sodipodi:namedview
     id="namedview4601"
     pagecolor="#ffffff"
     bordercolor="#000000"
     borderopacity="0.25"
     inkscape:showpageshadow="2"
     inkscape:pageopacity="0.0"
     inkscape:pagecheckerboard="0"
     inkscape:deskcolor="#d1d1d1"
     inkscape:document-units="mm"
     showgrid="false"
     inkscape:zoom="1"
     inkscape:cx="165"
     inkscape:cy="135"
     inkscape:window-width="1920"
     inkscape:window-height="1009"
     inkscape:window-x="-8"
     inkscape:window-y="-8"
     inkscape:window-maximized="1"
     inkscape:current-layer="layer1" /><defs
     id="defs4596" /><g
     inkscape:label="Layer 1"
     inkscape:groupmode="layer"
     id="layer1"><path
       style="fill:#111122;fill-opacity:1;stroke:none;stroke-width:0;stroke-linecap:round;stroke-linejoin:round;stroke-dasharray:none"
       d="M 31.308289,83.582526 15.349127,88.114261 1.5348989,82.23065 1.5283501,73.969649 14.394519,79.915575 23.283142,77.93657 34.466081,75.598449 51.205527,71.807466 76.778426,41.803861 88.887837,36.481896 88.062822,17.322459 89.193132,0.86807405 96.461141,11.473622 l 14.488529,4.020166 11.1226,-10.5310336 -2.13782,17.9721496 -1.56885,9.857301 -9.9088,9.703838 9.83671,2.349571 18.72684,5.152218 -5.44489,5.943682 -25.01484,-4.060833 23.61839,9.469692 -8.21925,7.768551 -21.19955,-9.99901 -11.585481,16.578865 -11.115252,7.354969 -1.022151,10.943336 -16.402762,23.770246 -11.02001,0.60143 10.073159,-14.56124 3.533382,-13.309954 -6.702015,12.749504 -21.185635,16.71001 -5.700496,-6.87425 19.931488,-17.342864 -3.937396,-8.844434 0.677515,-5.852483 z"
       id="path47507"
       sodipodi:nodetypes="ccccccccccccccccccccccccccccccccccccccc" /><path
       style="fill:#f9de00;fill-opacity:1;stroke:#ffffff;stroke-width:0;stroke-linecap:round;stroke-linejoin:round;stroke-dasharray:none"
       d="m 116.4425,30.35389 -3.91533,-3.759777 -4.64307,0.360231 2.06394,3.718497 z"
       id="path95459"
       sodipodi:nodetypes="ccccc" /><path
       style="fill:#f9de00;fill-opacity:1;stroke:#ffffff;stroke-width:0;stroke-linecap:round;stroke-linejoin:round;stroke-dasharray:none"
       d="m 94.882076,21.97296 6.236614,-0.210913 3.67451,4.28869 -3.89766,0.586221 z"
       id="path96189"
       sodipodi:nodetypes="ccccc" /></g></svg>
