<?xml version="1.0" encoding="UTF-8" standalone="no"?>
<!-- Created with Inkscape (http://www.inkscape.org/) -->

<svg
   width="160mm"
   height="120mm"
   viewBox="0 0 160 120"
   version="1.1"
   id="svg4599"
   sodipodi:docname="cat_walk_v2_2.svg"
   inkscape:version="1.2.2 (732a01da63, 2022-12-09)"
   xml:space="preserve"
   xmlns:inkscape="http://www.inkscape.org/namespaces/inkscape"
   xmlns:sodipodi="http://sodipodi.sourceforge.net/DTD/sodipodi-0.dtd"
   xmlns="http://www.w3.org/2000/svg"
   xmlns:svg="http://www.w3.org/2000/svg"><sodipodi:namedview
     id="namedview4601"
     pagecolor="#ffffff"
     bordercolor="#000000"
     borderopacity="0.25"
     inkscape:showpageshadow="2"
     inkscape:pageopacity="0.0"
     inkscape:pagecheckerboard="0"
     inkscape:deskcolor="#d1d1d1"
     inkscape:document-units="mm"
     showgrid="false"
     inkscape:zoom="1"
     inkscape:cx="223"
     inkscape:cy="227"
     inkscape:window-width="1920"
     inkscape:window-height="1009"
     inkscape:window-x="-8"
     inkscape:window-y="-8"
     inkscape:window-maximized="1"
     inkscape:current-layer="layer1" /><defs
     id="defs4596" /><g
     inkscape:label="Layer 1"
     inkscape:groupmode="layer"
     id="layer1"><path
       style="fill:#111122;fill-opacity:1;stroke:none;stroke-width:0;stroke-linecap:round;stroke-linejoin:round;stroke-dasharray:none"
       d="m 21.358237,2.852069 0.71996,10.694486 -5.118582,10.330688 4.942267,10.820841 1.771076,16.901114 -0.717216,14.683986 2.564254,9.946912 -11.024886,10.849782 -3.370923,18.203622 -4.3787105,4.29086 2.2568156,5.08491 12.2177799,-7.32352 1.405044,-11.299281 7.876469,-7.125622 0.22218,15.163613 14.803492,16.15796 10.953013,-1.67425 -1.584947,-5.44456 -11.227818,-6.66876 9.666688,-21.573882 34.665587,0.968118 -7.527651,22.452704 4.882555,8.71728 6.780343,1.05725 0.669676,-3.62692 -3.651664,-6.5816 11.908761,-19.14216 13.02371,7.738642 18.24622,14.636038 4.55433,7.86477 12.98629,0.94029 2.91029,-3.41421 -15.16021,-12.57698 -10.84983,-20.363533 3.23545,-9.814617 18.79382,5.3218 6.38433,-5.548734 -1.94627,-11.098531 -5.85508,-4.410712 4.40098,-10.511926 -16.68997,6.456531 L 111.45129,49.955032 80.847702,41.5359 42.685297,43.325922 35.258318,42.685711 27.082614,25.893616 30.836839,14.67979 27.442768,2.2332163 Z"
       id="path47507"
       sodipodi:nodetypes="ccccccccccccccccccccccccccccccccccccccccccccccccc" /><path
       style="fill:#f9de00;fill-opacity:1;stroke:none;stroke-width:0;stroke-linecap:round;stroke-linejoin:round;stroke-dasharray:none"
       d="m 146.17164,66.512885 2.28348,-2.733866 5.16057,3.04929 -3.60464,1.732775 z"
       id="path95459"
       sodipodi:nodetypes="ccccc" /></g></svg>
