<?xml version="1.0" encoding="UTF-8" standalone="no"?>
<!-- Created with Inkscape (http://www.inkscape.org/) -->

<svg
   width="160mm"
   height="120mm"
   viewBox="0 0 160 120"
   version="1.1"
   id="svg4599"
   sodipodi:docname="cat_walk_v2_1.svg"
   inkscape:version="1.2.2 (732a01da63, 2022-12-09)"
   xml:space="preserve"
   xmlns:inkscape="http://www.inkscape.org/namespaces/inkscape"
   xmlns:sodipodi="http://sodipodi.sourceforge.net/DTD/sodipodi-0.dtd"
   xmlns="http://www.w3.org/2000/svg"
   xmlns:svg="http://www.w3.org/2000/svg"><sodipodi:namedview
     id="namedview4601"
     pagecolor="#ffffff"
     bordercolor="#000000"
     borderopacity="0.25"
     inkscape:showpageshadow="2"
     inkscape:pageopacity="0.0"
     inkscape:pagecheckerboard="0"
     inkscape:deskcolor="#d1d1d1"
     inkscape:document-units="mm"
     showgrid="false"
     inkscape:zoom="1"
     inkscape:cx="303.5"
     inkscape:cy="227"
     inkscape:window-width="1920"
     inkscape:window-height="1009"
     inkscape:window-x="-8"
     inkscape:window-y="-8"
     inkscape:window-maximized="1"
     inkscape:current-layer="layer1" /><defs
     id="defs4596" /><g
     inkscape:label="Layer 1"
     inkscape:groupmode="layer"
     id="layer1"><path
       style="fill:#111122;fill-opacity:1;stroke:none;stroke-width:0;stroke-linecap:round;stroke-linejoin:round;stroke-dasharray:none"
       d="M 29.61328,1.277865 18.276564,7.1777513 14.486405,16.300624 21.338682,31.486899 21.027125,51.863781 21.942421,67.549835 6.8319467,87.774157 4.6152332,101.5197 l -4.63757385,7.05709 3.47452495,9.61079 8.0834097,1.03163 -0.702059,-9.60349 2.671695,-10.285959 26.876232,-16.498838 6.048774,19.976887 16.576803,16.15796 10.953013,-1.67425 -1.584947,-5.44456 -14.01445,-8.94873 4.093424,-18.787253 25.545701,1.728109 -0.941067,22.452704 4.882555,9.98393 10.580292,1.05725 3.70964,-3.62692 -8.211605,-6.5816 5.322175,-19.142159 12.26372,9.005293 11.65964,5.516156 -1.01894,7.61144 2.0931,4.48691 7.47023,-6.7075 -1.48038,-8.01704 -13.1298,-17.323572 8.80871,-10.827938 18.79382,5.3218 6.38433,-5.548734 -1.94627,-11.098531 -5.85508,-4.410712 4.40098,-10.511926 -16.68997,6.456531 L 111.45129,49.955032 80.847702,41.5359 42.685297,43.325922 30.495818,42.156544 28.797855,27.550439 23.814811,16.751061 32.923581,7.6000964 Z"
       id="path47507"
       sodipodi:nodetypes="ccccccccccccccccccccccccccccccccccccccccccccccccc" /><path
       style="fill:#f9de00;fill-opacity:1;stroke:#ffffff;stroke-width:0;stroke-linecap:round;stroke-linejoin:round;stroke-dasharray:none"
       d="m 146.56851,66.512885 2.28348,-2.733866 5.16057,3.04929 -3.60464,1.732775 z"
       id="path95459"
       sodipodi:nodetypes="ccccc" /></g></svg>
