<?xml version="1.0" encoding="UTF-8" standalone="no"?>
<!-- Created with Inkscape (http://www.inkscape.org/) -->

<svg
   width="160mm"
   height="120mm"
   viewBox="0 0 160 120"
   version="1.1"
   id="svg4599"
   sodipodi:docname="cat_walk_v2_4.svg"
   inkscape:version="1.2.2 (732a01da63, 2022-12-09)"
   xml:space="preserve"
   xmlns:inkscape="http://www.inkscape.org/namespaces/inkscape"
   xmlns:sodipodi="http://sodipodi.sourceforge.net/DTD/sodipodi-0.dtd"
   xmlns="http://www.w3.org/2000/svg"
   xmlns:svg="http://www.w3.org/2000/svg"><sodipodi:namedview
     id="namedview4601"
     pagecolor="#ffffff"
     bordercolor="#000000"
     borderopacity="0.25"
     inkscape:showpageshadow="2"
     inkscape:pageopacity="0.0"
     inkscape:pagecheckerboard="0"
     inkscape:deskcolor="#d1d1d1"
     inkscape:document-units="mm"
     showgrid="false"
     inkscape:zoom="1"
     inkscape:cx="302"
     inkscape:cy="227"
     inkscape:window-width="1920"
     inkscape:window-height="1009"
     inkscape:window-x="-8"
     inkscape:window-y="-8"
     inkscape:window-maximized="1"
     inkscape:current-layer="layer1" /><defs
     id="defs4596" /><g
     inkscape:label="Layer 1"
     inkscape:groupmode="layer"
     id="layer1"><path
       style="fill:#111122;fill-opacity:1;stroke:none;stroke-width:0;stroke-linecap:round;stroke-linejoin:round;stroke-dasharray:none"
       d="M 41.367747,0.80496423 23.827322,9.6715333 17.075973,23.050246 l 1.087709,11.701678 5.509276,17.376441 -0.970546,16.203967 -4.02233,7.41361 -5.451623,20.98299 3.880399,22.259458 10.191139,-0.4836 -4.801546,-19.532514 9.269785,-6.365635 11.734185,-7.404325 1.105391,13.645693 18.735358,14.451981 8.416679,-1.60316 -13.851747,-11.37498 -0.721256,-4.497218 4.507243,-9.664506 29.092323,-1.691849 1.592236,24.099353 -9.17727,3.65068 3.360386,5.49052 11.309543,-4.64024 0.910522,-17.490528 4.157161,13.058578 5.45303,10.70942 15.1942,-0.36846 -0.44321,-6.40054 -10.22027,-2.31711 -0.0833,-19.223546 17.16861,-16.781197 18.79382,5.3218 6.38433,-5.548734 -1.94627,-11.098531 -5.85508,-4.410712 4.40098,-10.511926 -16.68997,6.456531 L 111.45129,50.484199 80.847702,42.065067 42.685297,43.855089 35.258318,43.214878 26.337833,28.940875 30.041026,13.67734 44.193893,6.4459772 Z"
       id="path47507"
       sodipodi:nodetypes="cccccccccccccccccccccccccccccccccccccccccccccc" /><path
       style="fill:#f9de00;fill-opacity:1;stroke:#ffffff;stroke-width:0;stroke-linecap:round;stroke-linejoin:round;stroke-dasharray:none"
       d="m 146.17164,66.512885 2.28348,-2.733866 5.16057,3.04929 -3.60464,1.732775 z"
       id="path95459"
       sodipodi:nodetypes="ccccc" /></g></svg>
