<?xml version="1.0" encoding="UTF-8" standalone="no"?>
<!-- Created with Inkscape (http://www.inkscape.org/) -->

<svg
   width="380mm"
   height="120mm"
   viewBox="0 0 380 120"
   version="1.1"
   id="svg4599"
   sodipodi:docname="dog_sleeping_v2_1.svg"
   inkscape:version="1.2.2 (732a01da63, 2022-12-09)"
   xml:space="preserve"
   xmlns:inkscape="http://www.inkscape.org/namespaces/inkscape"
   xmlns:sodipodi="http://sodipodi.sourceforge.net/DTD/sodipodi-0.dtd"
   xmlns="http://www.w3.org/2000/svg"
   xmlns:svg="http://www.w3.org/2000/svg"><sodipodi:namedview
     id="namedview4601"
     pagecolor="#ffffff"
     bordercolor="#000000"
     borderopacity="0.25"
     inkscape:showpageshadow="2"
     inkscape:pageopacity="0.0"
     inkscape:pagecheckerboard="0"
     inkscape:deskcolor="#d1d1d1"
     inkscape:document-units="mm"
     showgrid="true"
     inkscape:zoom="0.50000001"
     inkscape:cx="918.99997"
     inkscape:cy="327.99999"
     inkscape:window-width="1920"
     inkscape:window-height="1009"
     inkscape:window-x="-8"
     inkscape:window-y="-8"
     inkscape:window-maximized="1"
     inkscape:current-layer="layer1"
     showguides="false"><inkscape:grid
       type="xygrid"
       id="grid53742"
       originx="0"
       originy="0" /></sodipodi:namedview><defs
     id="defs4596" /><g
     inkscape:label="Layer 1"
     inkscape:groupmode="layer"
     id="layer1"><path
       style="fill:#ba6b62;fill-opacity:1;stroke:#1e1e27;stroke-width:2;stroke-linecap:round;stroke-linejoin:round;stroke-dasharray:none;stroke-opacity:1"
       d="m 191.60295,71.327141 32.03544,12.0732 59.09856,6.82799 -4.608,11.534599 -58.92613,-3.087589 -56.7489,4.667939 -5.66511,-18.613349 -42.33127,5.3047 -31.747042,-6.46224 14.58905,-16.56399 -3.18304,-20.913987 -32.949276,-13.823946 32.961513,13.687587 2.897097,20.93646 -14.341067,16.540539 31.882335,6.836207 2.2115,14.283879 L 51.733413,97.490561 21.230086,68.178741 51.777864,97.385881 109.92661,114.00994 97.655968,117.39878 60.722857,113.49209 38.30609,104.08968 21.853557,93.819541 3.3618636,66.390131 15.996069,17.00322 48.032222,4.0686426 l 77.187158,5.678211 46.47149,-7.217996 48.9067,18.0473694 18.12015,-4.911313 32.33002,13.96588 4.97099,12.63269 26.77807,22.499017 -11.4167,14.8151 -26.4359,-5.5866 24.90429,7.33431 -2.56391,3.27962 -64.09454,-1.47679 z"
       id="path13211"
       sodipodi:nodetypes="ccccccccccccccccccccccccccccccccccccccccc" /><path
       style="fill:#fffadc;fill-opacity:1;stroke:none;stroke-width:0;stroke-linecap:round;stroke-linejoin:round;stroke-dasharray:none;stroke-opacity:1"
       d="m 296,100 h 84 l -8,-24 -12,4 h -44 l -12,-4 z"
       id="path85108"
       sodipodi:nodetypes="ccccccc" /></g></svg>
