<?xml version="1.0" encoding="UTF-8" standalone="no"?>
<!-- Created with Inkscape (http://www.inkscape.org/) -->

<svg
   width="380mm"
   height="200mm"
   viewBox="0 0 380 200"
   version="1.1"
   id="svg4599"
   sodipodi:docname="dog_running1_v1_1.svg"
   inkscape:version="1.2.2 (732a01da63, 2022-12-09)"
   xml:space="preserve"
   xmlns:inkscape="http://www.inkscape.org/namespaces/inkscape"
   xmlns:sodipodi="http://sodipodi.sourceforge.net/DTD/sodipodi-0.dtd"
   xmlns="http://www.w3.org/2000/svg"
   xmlns:svg="http://www.w3.org/2000/svg"><sodipodi:namedview
     id="namedview4601"
     pagecolor="#ffffff"
     bordercolor="#000000"
     borderopacity="0.25"
     inkscape:showpageshadow="2"
     inkscape:pageopacity="0.0"
     inkscape:pagecheckerboard="0"
     inkscape:deskcolor="#d1d1d1"
     inkscape:document-units="mm"
     showgrid="true"
     inkscape:zoom="0.70710678"
     inkscape:cx="607.40473"
     inkscape:cy="395.9798"
     inkscape:window-width="1920"
     inkscape:window-height="1009"
     inkscape:window-x="-8"
     inkscape:window-y="-8"
     inkscape:window-maximized="1"
     inkscape:current-layer="layer1"
     showguides="false"><inkscape:grid
       type="xygrid"
       id="grid53742"
       originx="0"
       originy="0" /></sodipodi:namedview><defs
     id="defs4596" /><g
     inkscape:label="Layer 1"
     inkscape:groupmode="layer"
     id="layer1"><path
       style="fill:#ffb42a;fill-opacity:1;stroke:none;stroke-width:0;stroke-linecap:round;stroke-linejoin:round;stroke-dasharray:none;stroke-opacity:1"
       d="m 280.39025,15.876057 41.92169,6.159143 6.14337,28.061137 39.10731,8.167337 -6.43365,35.427933 -57.41939,-19.13981 11.84215,17.44807 41.98853,14.850343 -52.01871,6.74205 -47.26899,-24.685613 -12.69941,28.597503 73.25578,19.43235 -14.85025,14.374 -71.31694,-17.9651 -15.35151,-37.466563 -46.09883,-5.88587 -57.5079,4.877921 -32.014778,36.915502 -42.01909,-14.53052 -22.57307,28.7346 -16.72243084,-17.6181 30.24600084,-32.588672 16.86755,4.229342 32.85383,-1.829019 2.202,-46.611303 -64.56159,25.96685 34.59555,-27.59847 53.565328,-19.05478 87.55664,-8.527924 59.54772,10.615363 z"
       id="path13211"
       sodipodi:nodetypes="ccccccccccccccccccccccccccccccc" /><path
       style="fill:#1e1e27;fill-opacity:1;stroke-width:0;stroke-linecap:round;stroke-linejoin:round"
       d="m 306.82541,40.411151 11.59949,-5.612659 2.99342,13.844563 z"
       id="path17859"
       sodipodi:nodetypes="cccc" /></g></svg>
