<?xml version="1.0" encoding="UTF-8" standalone="no"?>
<!-- Created with Inkscape (http://www.inkscape.org/) -->

<svg
   width="380mm"
   height="180mm"
   viewBox="0 0 380 180"
   version="1.1"
   id="svg4599"
   sodipodi:docname="dog_running2_v1_1.svg"
   inkscape:version="1.2.2 (732a01da63, 2022-12-09)"
   xml:space="preserve"
   xmlns:inkscape="http://www.inkscape.org/namespaces/inkscape"
   xmlns:sodipodi="http://sodipodi.sourceforge.net/DTD/sodipodi-0.dtd"
   xmlns="http://www.w3.org/2000/svg"
   xmlns:svg="http://www.w3.org/2000/svg"><sodipodi:namedview
     id="namedview4601"
     pagecolor="#ffffff"
     bordercolor="#000000"
     borderopacity="0.25"
     inkscape:showpageshadow="2"
     inkscape:pageopacity="0.0"
     inkscape:pagecheckerboard="0"
     inkscape:deskcolor="#d1d1d1"
     inkscape:document-units="mm"
     showgrid="true"
     inkscape:zoom="0.35355339"
     inkscape:cx="912.16775"
     inkscape:cy="684.47936"
     inkscape:window-width="1920"
     inkscape:window-height="1009"
     inkscape:window-x="-8"
     inkscape:window-y="-8"
     inkscape:window-maximized="1"
     inkscape:current-layer="layer1"
     showguides="false"><inkscape:grid
       type="xygrid"
       id="grid53742"
       originx="0"
       originy="0" /></sodipodi:namedview><defs
     id="defs4596" /><g
     inkscape:label="Layer 1"
     inkscape:groupmode="layer"
     id="layer1"><path
       style="fill:#ffb42a;fill-opacity:1;stroke:none;stroke-width:0;stroke-linecap:round;stroke-linejoin:round;stroke-dasharray:none;stroke-opacity:1"
       d="m 272.53253,10.637574 39.06768,6.650703 8.99738,27.569577 45.40412,15.201493 -12.73046,28.393777 -57.41939,-19.13981 7.7262,12.957942 48.34954,11.108567 -46.40605,5.993692 -55.87506,-8.970159 -40.01436,35.332694 8.89727,34.39944 -17.09531,1.27779 -14.0678,-38.17067 17.20191,-19.13187 -46.09883,-5.885872 -39.00264,23.746342 14.75738,12.96815 7.7465,19.14543 37.85106,3.76197 -9.98723,22.41888 -73.27273,-10.42787 10.94491,-25.13807 -32.627201,-23.53131 13.427322,-42.495352 -64.561592,25.966852 34.59555,-27.598472 53.565331,-19.05478 56.87409,-39.73318 75.84097,16.217008 z"
       id="path13211"
       sodipodi:nodetypes="ccccccccccccccccccccccccccccccc" /><path
       style="fill:#1e1e27;fill-opacity:1;stroke-width:0;stroke-linecap:round;stroke-linejoin:round"
       d="m 298.02248,30.717312 11.59949,-5.612659 2.99342,13.844563 z"
       id="path17859"
       sodipodi:nodetypes="cccc" /></g></svg>
