<?xml version="1.0" encoding="UTF-8" standalone="no"?>
<!-- Created with Inkscape (http://www.inkscape.org/) -->

<svg
   width="380mm"
   height="120mm"
   viewBox="0 0 380 120"
   version="1.1"
   id="svg4599"
   sodipodi:docname="dog_sleeping_yoshi_v3_1.svg"
   inkscape:version="1.2.2 (732a01da63, 2022-12-09)"
   xml:space="preserve"
   xmlns:inkscape="http://www.inkscape.org/namespaces/inkscape"
   xmlns:sodipodi="http://sodipodi.sourceforge.net/DTD/sodipodi-0.dtd"
   xmlns="http://www.w3.org/2000/svg"
   xmlns:svg="http://www.w3.org/2000/svg"><sodipodi:namedview
     id="namedview4601"
     pagecolor="#ffffff"
     bordercolor="#000000"
     borderopacity="0.25"
     inkscape:showpageshadow="2"
     inkscape:pageopacity="0.0"
     inkscape:pagecheckerboard="0"
     inkscape:deskcolor="#d1d1d1"
     inkscape:document-units="mm"
     showgrid="true"
     inkscape:zoom="1.4142136"
     inkscape:cx="954.94768"
     inkscape:cy="313.2483"
     inkscape:window-width="1920"
     inkscape:window-height="1009"
     inkscape:window-x="-8"
     inkscape:window-y="-8"
     inkscape:window-maximized="1"
     inkscape:current-layer="layer1"
     showguides="false"><inkscape:grid
       type="xygrid"
       id="grid53742"
       originx="0"
       originy="0" /></sodipodi:namedview><defs
     id="defs4596" /><g
     inkscape:label="Layer 1"
     inkscape:groupmode="layer"
     id="layer1"><path
       style="fill:#fffadc;fill-opacity:1;stroke:none;stroke-width:0;stroke-linecap:round;stroke-linejoin:round;stroke-dasharray:none;stroke-opacity:1"
       d="m 296,100 h 84 l -8,-24 -12,4 h -44 l -12,-4 z"
       id="path85108"
       sodipodi:nodetypes="ccccccc" /><path
       style="fill:#fffadc;stroke:none;stroke-width:0;stroke-linecap:round;stroke-linejoin:round;stroke-dasharray:none;stroke-opacity:1"
       d="m 99.529801,37.70902 0.18709,22.357745 18.435529,1.298278 11.00994,17.183092 -27.77106,15.683484 16.0983,25.457401 13.03232,-4.13757 -9.69629,-16.197216 6.61693,-3.738981 10.90331,7.257817 63.85697,-1.23745 30.89272,-1.36084 -16.73289,6.01789 0.73134,12.18577 27.85266,-10.53099 16.92252,1.60054 8.6652,-13.080504 21.62078,-6.172217 2.38517,-7.614313 -26.17203,-0.0069 -10.82102,4.498726 9.79224,-7.52677 27.24955,0.0209 0.88723,-5.323368 -52.30419,-3.318068 -0.32224,-35.292358 -17.87115,3.438635 0.37117,11.352539 7.49016,-1.674308 -2.98252,14.369768 -6.5163,-1.773882 -5.79901,-32.796074 -28.38043,-0.609447 1.76467,19.805353 17.98398,-5.587485 -0.61456,16.794134 -23.00779,-7.32684 -27.47269,11.290646 -7.37208,-19.660458 -16.39823,-1.704384 -0.0972,-16.555851 -9.12666,5.340504 0.0326,18.264139 11.72256,1.681253 7.91349,16.181523 -3.4182,1.381936 -5.89258,-13.21375 -26.34968,-3.628911 2.27153,-22.680701 z"
       id="path89303"
       sodipodi:nodetypes="cccccccccccccccccccccccccccccccccccccccccccccccccc" /></g></svg>
