<?xml version="1.0" encoding="UTF-8" standalone="no"?>
<!-- Created with Inkscape (http://www.inkscape.org/) -->

<svg
   width="380mm"
   height="220mm"
   viewBox="0 0 380 220"
   version="1.1"
   id="svg4599"
   sodipodi:docname="dog_sniffing1_v1_1.svg"
   inkscape:version="1.2.2 (732a01da63, 2022-12-09)"
   xml:space="preserve"
   xmlns:inkscape="http://www.inkscape.org/namespaces/inkscape"
   xmlns:sodipodi="http://sodipodi.sourceforge.net/DTD/sodipodi-0.dtd"
   xmlns="http://www.w3.org/2000/svg"
   xmlns:svg="http://www.w3.org/2000/svg"><sodipodi:namedview
     id="namedview4601"
     pagecolor="#ffffff"
     bordercolor="#000000"
     borderopacity="0.25"
     inkscape:showpageshadow="2"
     inkscape:pageopacity="0.0"
     inkscape:pagecheckerboard="0"
     inkscape:deskcolor="#d1d1d1"
     inkscape:document-units="mm"
     showgrid="true"
     inkscape:zoom="0.5"
     inkscape:cx="797"
     inkscape:cy="480"
     inkscape:window-width="1920"
     inkscape:window-height="1009"
     inkscape:window-x="-8"
     inkscape:window-y="-8"
     inkscape:window-maximized="1"
     inkscape:current-layer="layer1"
     showguides="false"><inkscape:grid
       type="xygrid"
       id="grid53742"
       originx="0"
       originy="0" /></sodipodi:namedview><defs
     id="defs4596" /><g
     inkscape:label="Layer 1"
     inkscape:groupmode="layer"
     id="layer1"><path
       style="fill:#ff7200;fill-opacity:1;stroke:none;stroke-width:0;stroke-linecap:round;stroke-linejoin:round;stroke-dasharray:none;stroke-opacity:1"
       d="m 116.6017,53.864481 57.06294,-3.657169 82.23268,24.452114 53.46064,47.201544 18.7182,1.44566 25.7796,23.9935 0.44968,13.5681 17.68888,30.17242 -21.26523,13.49596 -25.25544,-17.77943 -60.87593,-21.85922 -20.37114,-2.78306 -32.24053,-5.93146 -70.9388,-25.1748 L 78.023264,104.66242 84.640375,77.996568 67.052611,67.441763 52.635416,47.70381 47.127157,27.059414 45.62204,0.86539807 57.189017,3.6112241 64.017558,39.304582 94.346283,59.306329 Z"
       id="path45831"
       sodipodi:nodetypes="cccccccccccccccccccccccc" /><path
       style="fill:#ff7200;fill-opacity:1;stroke:none;stroke-width:0;stroke-linecap:round;stroke-linejoin:round;stroke-dasharray:none;stroke-opacity:1"
       d="m 244.22658,162.1149 34.07256,3.20072 10.82656,15.57565 -23.21786,30.51425 -11.78472,-4.14235 12.89029,-25.71609 -32.6432,-10.47338 -3.68649,29.162 11.24438,5.52253 -0.95819,8.05743 -28.10008,1.0212 -3.18385,-39.3416 -3.49968,-19.686 -33.89524,-13.76239 -20.78758,27.06662 23.28425,31.50615 13.17415,6.05075 4.25418,8.2567 -39.93984,-0.75424 -25.45783,-28.59078 -3.50989,-30.63321 -6.09293,-0.36518 -42.232696,25.97657 -5.960319,16.92913 9.606168,7.40649 2.547715,8.38724 -30.982041,1.44123 2.669287,-51.42916 29.776668,-19.90509 -4.617088,-38.72767 101.583626,15.35293 z"
       id="path13211"
       sodipodi:nodetypes="cccccccccccccccccccccccccccccccc" /><path
       style="fill:#1e1e27;fill-opacity:1;stroke-width:0;stroke-linecap:round;stroke-linejoin:round"
       d="m 340.36196,162.46953 6.17553,-1.37933 1.53821,6.17164 -7.34589,-0.0224 z"
       id="path17859"
       sodipodi:nodetypes="ccccc" /></g></svg>
