<?xml version="1.0" encoding="UTF-8" standalone="no"?>
<!-- Created with Inkscape (http://www.inkscape.org/) -->

<svg
   width="380mm"
   height="220mm"
   viewBox="0 0 380 220"
   version="1.1"
   id="svg4599"
   sodipodi:docname="dog_sniffing2_v1_1.svg"
   inkscape:version="1.2.2 (732a01da63, 2022-12-09)"
   xml:space="preserve"
   xmlns:inkscape="http://www.inkscape.org/namespaces/inkscape"
   xmlns:sodipodi="http://sodipodi.sourceforge.net/DTD/sodipodi-0.dtd"
   xmlns="http://www.w3.org/2000/svg"
   xmlns:svg="http://www.w3.org/2000/svg"><sodipodi:namedview
     id="namedview4601"
     pagecolor="#ffffff"
     bordercolor="#000000"
     borderopacity="0.25"
     inkscape:showpageshadow="2"
     inkscape:pageopacity="0.0"
     inkscape:pagecheckerboard="0"
     inkscape:deskcolor="#d1d1d1"
     inkscape:document-units="mm"
     showgrid="true"
     inkscape:zoom="0.5"
     inkscape:cx="719"
     inkscape:cy="378"
     inkscape:window-width="1920"
     inkscape:window-height="1009"
     inkscape:window-x="-8"
     inkscape:window-y="-8"
     inkscape:window-maximized="1"
     inkscape:current-layer="layer1"
     showguides="false"><inkscape:grid
       type="xygrid"
       id="grid53742"
       originx="0"
       originy="0" /></sodipodi:namedview><defs
     id="defs4596" /><g
     inkscape:label="Layer 1"
     inkscape:groupmode="layer"
     id="layer1"><path
       style="fill:#ff7200;fill-opacity:1;stroke:none;stroke-width:0;stroke-linecap:round;stroke-linejoin:round;stroke-dasharray:none;stroke-opacity:1"
       d="m 116.6017,53.864481 57.06294,-3.657169 82.23268,24.452114 53.46064,47.201544 18.7182,1.44566 25.7796,23.9935 0.44968,13.5681 17.68888,30.17242 -21.26523,13.49596 -25.25544,-17.77943 -60.87593,-21.85922 -20.37114,-2.78306 -32.24053,-5.93146 -70.9388,-25.1748 L 78.023264,104.66242 84.640375,77.996568 67.052611,67.441763 52.635416,47.70381 47.127157,27.059414 45.62204,0.86539807 57.189017,3.6112241 64.017558,39.304582 94.346283,59.306329 Z"
       id="path45831"
       sodipodi:nodetypes="cccccccccccccccccccccccc" /><path
       style="fill:#ff7200;fill-opacity:1;stroke:none;stroke-width:0;stroke-linecap:round;stroke-linejoin:round;stroke-dasharray:none;stroke-opacity:1"
       d="m 244.22658,162.1149 34.07256,3.20072 19.42552,15.44336 15.01443,20.98925 -16.28264,8.29307 -19.52117,-28.62651 -42.56507,-10.34109 -17.31253,28.63283 7.80479,9.09441 -4.66235,6.60222 -22.67612,-0.83089 16.39531,-46.22076 -7.73301,-12.54225 -33.89524,-13.76239 -27.52277,27.06662 1.20778,32.81577 16.16757,5.48948 -4.72607,9.00506 -22.16642,-0.006 -20.78061,-40.56445 19.31493,-25.76891 -16.5699,4.49913 -9.118,15.87378 -5.58614,18.42584 9.60616,7.40649 2.54772,8.38724 -30.982041,1.44123 4.540174,-42.82308 -0.291424,-19.90509 -9.908755,-38.72767 101.583626,15.35293 z"
       id="path13211"
       sodipodi:nodetypes="cccccccccccccccccccccccccccccccc" /><path
       style="fill:#1e1e27;fill-opacity:1;stroke-width:0;stroke-linecap:round;stroke-linejoin:round"
       d="m 340.36196,162.46953 6.17553,-1.37933 1.53821,6.17164 -7.34589,-0.0224 z"
       id="path17859"
       sodipodi:nodetypes="ccccc" /></g></svg>
