<?xml version="1.0" encoding="UTF-8" standalone="no"?>
<!-- Created with Inkscape (http://www.inkscape.org/) -->

<svg
   width="380mm"
   height="120mm"
   viewBox="0 0 380 120"
   version="1.1"
   id="svg4599"
   sodipodi:docname="dog_sleeping_charlie_v1_1.svg"
   inkscape:version="1.2.2 (732a01da63, 2022-12-09)"
   xml:space="preserve"
   xmlns:inkscape="http://www.inkscape.org/namespaces/inkscape"
   xmlns:sodipodi="http://sodipodi.sourceforge.net/DTD/sodipodi-0.dtd"
   xmlns="http://www.w3.org/2000/svg"
   xmlns:svg="http://www.w3.org/2000/svg"><sodipodi:namedview
     id="namedview4601"
     pagecolor="#ffffff"
     bordercolor="#000000"
     borderopacity="0.25"
     inkscape:showpageshadow="2"
     inkscape:pageopacity="0.0"
     inkscape:pagecheckerboard="0"
     inkscape:deskcolor="#d1d1d1"
     inkscape:document-units="mm"
     showgrid="true"
     inkscape:zoom="0.7071068"
     inkscape:cx="761.55398"
     inkscape:cy="26.870057"
     inkscape:window-width="1920"
     inkscape:window-height="1009"
     inkscape:window-x="-8"
     inkscape:window-y="-8"
     inkscape:window-maximized="1"
     inkscape:current-layer="layer1"
     showguides="false"><inkscape:grid
       type="xygrid"
       id="grid53742"
       originx="0"
       originy="0" /></sodipodi:namedview><defs
     id="defs4596" /><g
     inkscape:label="Layer 1"
     inkscape:groupmode="layer"
     id="layer1"><path
       style="fill:#fffadc;fill-opacity:1;stroke:none;stroke-width:0;stroke-linecap:round;stroke-linejoin:round;stroke-dasharray:none;stroke-opacity:1"
       d="m 296,100 h 84 l -8,-24 -12,4 h -44 l -12,-4 z"
       id="path85108"
       sodipodi:nodetypes="ccccccc" /><path
       style="fill:#91423f;fill-opacity:1;stroke:#672f2d;stroke-width:2;stroke-linecap:round;stroke-linejoin:round;stroke-dasharray:none;stroke-opacity:1"
       d="m 190.36362,74.48222 18.55071,0.678195 -6.39804,18.835909 12.05213,7.930006 -11.86353,8.38278 -24.96324,-22.839785 25.10363,22.978025 -0.20397,6.10551 -24.77951,-5.80271 -12.93401,-12.665757 -2.917,-13.217182 9.99123,-18.491465 26.67052,-11.325311 53.7953,4.24784 14.92168,13.097423 5.83197,12.619424 6.16436,14.819666 -8.19839,5.529302 -1.00668,-8.715754 -1.691,4.795294 -1.50544,1.17118 3.1947,12.75136 -7.25784,-0.28454 -3.4006,-5.90565 6.83447,-6.07963 -9.43299,7.08076 -9.03842,8.91277 -9.07731,-5.2965 4.54635,-20.937865 -2.48168,-14.246546 2.68055,14.018189 -2.36121,10.654642 -30.37154,1.91275 3.6444,-3.33257 -11.85197,-7.822081 6.11599,-18.893851 z"
       id="path5456"
       sodipodi:nodetypes="ccccccccccccccccccccccccccccccccccccc" /><path
       style="fill:#672f2d;fill-opacity:1;stroke:none;stroke-width:0;stroke-linecap:round;stroke-linejoin:round;stroke-dasharray:none;stroke-opacity:1"
       d="m 194.44896,55.543875 23.7526,17.205712 17.19232,-3.452141 16.29414,4.392689 -0.31193,-14.548295 z"
       id="path11779"
       sodipodi:nodetypes="cccccc" /><path
       style="fill:#ba6b62;fill-opacity:1;stroke:none;stroke-width:0;stroke-linecap:round;stroke-linejoin:round;stroke-dasharray:none;stroke-opacity:1"
       d="M 251.43123,73.691763 251.27994,59.288318 263.5042,69.974676 Z"
       id="path11835"
       sodipodi:nodetypes="cccc" /></g></svg>
