<?xml version="1.0" encoding="UTF-8" standalone="no"?>
<!-- Created with Inkscape (http://www.inkscape.org/) -->

<svg
   width="156mm"
   height="160mm"
   viewBox="0 0 156 160"
   version="1.1"
   id="svg4599"
   sodipodi:docname="picture_on_wall_v1_1.svg"
   inkscape:version="1.2.2 (732a01da63, 2022-12-09)"
   xml:space="preserve"
   xmlns:inkscape="http://www.inkscape.org/namespaces/inkscape"
   xmlns:sodipodi="http://sodipodi.sourceforge.net/DTD/sodipodi-0.dtd"
   xmlns="http://www.w3.org/2000/svg"
   xmlns:svg="http://www.w3.org/2000/svg"><sodipodi:namedview
     id="namedview4601"
     pagecolor="#ffffff"
     bordercolor="#000000"
     borderopacity="0.25"
     inkscape:showpageshadow="2"
     inkscape:pageopacity="0.0"
     inkscape:pagecheckerboard="0"
     inkscape:deskcolor="#d1d1d1"
     inkscape:document-units="mm"
     showgrid="true"
     inkscape:zoom="0.70710678"
     inkscape:cx="47.376154"
     inkscape:cy="155.56349"
     inkscape:window-width="1920"
     inkscape:window-height="1009"
     inkscape:window-x="-8"
     inkscape:window-y="-8"
     inkscape:window-maximized="1"
     inkscape:current-layer="layer1"><inkscape:grid
       type="xygrid"
       id="grid53742"
       originx="0"
       originy="0" /></sodipodi:namedview><defs
     id="defs4596" /><g
     inkscape:label="Layer 1"
     inkscape:groupmode="layer"
     id="layer1"><path
       style="fill:#1c8350;fill-opacity:1;stroke-width:0;stroke-linecap:round;stroke-linejoin:round"
       d="m 0,0 156,1e-5 v 160 L 0,160 Z"
       id="path67975"
       sodipodi:nodetypes="ccccc" /><path
       style="fill:#1e1e27;fill-opacity:1;stroke-width:0;stroke-linecap:round;stroke-linejoin:round"
       d="M 12,11.99999 H 144 V 148.00001 H 12 Z"
       id="path67977"
       sodipodi:nodetypes="ccccc" /><path
       style="fill:#bc0048;fill-opacity:1;stroke-width:0;stroke-linecap:round;stroke-linejoin:round"
       d="M 48,148.00001 60,120 h 36 l 12,28.00001 z"
       id="path67979" /><path
       style="fill:#1c8350;fill-opacity:1;stroke-width:0;stroke-linecap:round;stroke-linejoin:round"
       d="m 32,127.99999 v -76 L 68,24.00001 h 36 l 24,27.99998 v 56.00002 L 112,124 V 87.99999 H 48 v 20.00002 z"
       id="path67981" /><path
       style="fill:#ff7200;fill-opacity:1;stroke-width:0;stroke-linecap:round;stroke-linejoin:round"
       d="m 40,60.00001 32,-24 24,-4 24,28 -8,28 -20,20 V 120 l -24,16.00001 v -28 l -20,-20 z"
       id="path67983"
       sodipodi:nodetypes="ccccccccccc" /><path
       style="fill:#1e1e27;fill-opacity:1;stroke-width:0;stroke-linecap:round;stroke-linejoin:round"
       d="m 52,64.00001 12,-12.00002 8,8.00002 H 88 L 96,51.99999 108,64.00001 96,76 88,68.00001 H 72 L 64,76 Z"
       id="path67989" /><path
       style="fill:#1c8350;fill-opacity:1;stroke-width:0;stroke-linecap:round;stroke-linejoin:round"
       d="m 60,60.00001 h 8 v 8 h -8 z"
       id="path67987" /><path
       style="fill:#7d2253;fill-opacity:1;stroke-width:0;stroke-linecap:round;stroke-linejoin:round"
       d="m 92,87.99999 v 12.00002"
       id="path68056" /><path
       style="fill:#1e1e27;fill-opacity:1;stroke-width:0;stroke-linecap:round;stroke-linejoin:round"
       d="m 72,100.00001 v -8 h 16 v 8 z"
       id="path68058"
       sodipodi:nodetypes="ccccc" /><path
       style="fill:#1c8350;fill-opacity:1;stroke-width:0;stroke-linecap:round;stroke-linejoin:round"
       d="m 92,60.00001 h 8 v 8 h -8 z"
       id="path68060" /></g></svg>
