<?xml version="1.0" encoding="UTF-8" standalone="no"?>
<!-- Created with Inkscape (http://www.inkscape.org/) -->

<svg
   width="275mm"
   height="275mm"
   viewBox="0 0 275 275"
   version="1.1"
   id="svg4599"
   sodipodi:docname="sign_go_v1_1.svg"
   inkscape:version="1.2.2 (732a01da63, 2022-12-09)"
   xml:space="preserve"
   xmlns:inkscape="http://www.inkscape.org/namespaces/inkscape"
   xmlns:sodipodi="http://sodipodi.sourceforge.net/DTD/sodipodi-0.dtd"
   xmlns="http://www.w3.org/2000/svg"
   xmlns:svg="http://www.w3.org/2000/svg"><sodipodi:namedview
     id="namedview4601"
     pagecolor="#ffffff"
     bordercolor="#000000"
     borderopacity="0.25"
     inkscape:showpageshadow="2"
     inkscape:pageopacity="0.0"
     inkscape:pagecheckerboard="0"
     inkscape:deskcolor="#d1d1d1"
     inkscape:document-units="mm"
     showgrid="true"
     inkscape:zoom="0.35355339"
     inkscape:cx="-354.9676"
     inkscape:cy="463.86205"
     inkscape:window-width="1920"
     inkscape:window-height="1009"
     inkscape:window-x="-8"
     inkscape:window-y="-8"
     inkscape:window-maximized="1"
     inkscape:current-layer="layer1"
     showguides="false"><inkscape:grid
       type="xygrid"
       id="grid53742"
       originx="0"
       originy="0" /></sodipodi:namedview><defs
     id="defs4596" /><g
     inkscape:label="Layer 1"
     inkscape:groupmode="layer"
     id="layer1"><path
       style="fill:#ff7200;fill-opacity:1;stroke:none;stroke-width:0;stroke-linecap:round;stroke-linejoin:round;stroke-dasharray:none;stroke-opacity:1"
       d="m 65.090838,80.155933 27.6891,-6.73518 -1.1225,48.268857 -27.6892,8.98025 -42.28203,-40.785317 10.1028,-49.3914 46.02383,-5.23847 -1.8709,22.07645 -31.43093,0.74835 -4.8643,25.81823 24.32153,26.566587 13.4356,-2.20201 -0.7135,-13.513437 -11.2253,2.24507 z"
       id="path11671"
       sodipodi:nodetypes="ccccccccccccccc" /><path
       style="fill:#ff7200;fill-opacity:1;stroke:none;stroke-width:0;stroke-linecap:round;stroke-linejoin:round;stroke-dasharray:none;stroke-opacity:1"
       d="m 119.32313,33.407153 -17.563,39.07814 16.4639,43.591667 55.7524,-16.837982 -23.199,-68.100285 -31.4309,2.24507 8.6514,18.47088 14.676,-0.26458 10.167,35.67524 -24.3592,7.41158 -9.6058,-25.65547 9.0284,-17.1317 z"
       id="path11673"
       sodipodi:nodetypes="ccccccccccccc" /><path
       style="fill:#ff7200;fill-opacity:1;stroke:none;stroke-width:0;stroke-linecap:round;stroke-linejoin:round;stroke-dasharray:none;stroke-opacity:1"
       d="m 164.38283,4.3054928 18.9534,71.7623302 12.48,1.39893 -7.8734,-76.72520017 z"
       id="path11675"
       sodipodi:nodetypes="ccccc" /><path
       style="fill:#ff7200;fill-opacity:1;stroke:none;stroke-width:0;stroke-linecap:round;stroke-linejoin:round;stroke-dasharray:none;stroke-opacity:1"
       d="m 184.76343,82.811443 11.8453,1.36443 -0.073,9.9125 -7.0175,3.644775 z"
       id="path11677"
       sodipodi:nodetypes="ccccc" /><path
       style="fill:#ff7200;fill-opacity:1;stroke:none;stroke-width:0;stroke-linecap:round;stroke-linejoin:round;stroke-dasharray:none;stroke-opacity:1"
       d="M 4.1000084,195.77672 222.99373,163.2233 l -8.2319,36.29519 59.4942,-49.76556 -64.3585,-35.17269 10.8512,30.30838 -220.01632163,5.61267 17.66689963,18.00656 z"
       id="path11679"
       sodipodi:nodetypes="ccccccccc" /></g></svg>
