<?xml version="1.0" encoding="UTF-8" standalone="no"?>
<!-- Created with Inkscape (http://www.inkscape.org/) -->

<svg
   width="66mm"
   height="30mm"
   viewBox="0 0 66 30"
   version="1.1"
   id="svg4599"
   sodipodi:docname="spider_ceiling_v1_1.svg"
   inkscape:version="1.2.2 (732a01da63, 2022-12-09)"
   xml:space="preserve"
   xmlns:inkscape="http://www.inkscape.org/namespaces/inkscape"
   xmlns:sodipodi="http://sodipodi.sourceforge.net/DTD/sodipodi-0.dtd"
   xmlns="http://www.w3.org/2000/svg"
   xmlns:svg="http://www.w3.org/2000/svg"><sodipodi:namedview
     id="namedview4601"
     pagecolor="#ffffff"
     bordercolor="#000000"
     borderopacity="0.25"
     inkscape:showpageshadow="2"
     inkscape:pageopacity="0.0"
     inkscape:pagecheckerboard="0"
     inkscape:deskcolor="#d1d1d1"
     inkscape:document-units="mm"
     showgrid="true"
     inkscape:zoom="2"
     inkscape:cx="26.25"
     inkscape:cy="91.5"
     inkscape:window-width="1920"
     inkscape:window-height="1009"
     inkscape:window-x="-8"
     inkscape:window-y="-8"
     inkscape:window-maximized="1"
     inkscape:current-layer="layer1"
     showguides="false"><inkscape:grid
       type="xygrid"
       id="grid53742"
       originx="0"
       originy="0" /></sodipodi:namedview><defs
     id="defs4596" /><g
     inkscape:label="Layer 1"
     inkscape:groupmode="layer"
     id="layer1"><path
       style="fill:#1e1e27;fill-opacity:1;stroke:none;stroke-width:0;stroke-linecap:round;stroke-linejoin:round;stroke-dasharray:none;stroke-opacity:1"
       d="m 21.997253,22.316037 3.087166,-3.249587 -4.121412,-6.403788 -1.46731,-8.8350175 3.910595,8.9283935 5.576003,5.942838 4.798331,0.434881 2.571287,-4.389315 3.505258,-10.7277716 -2.093154,16.0033836 1.800338,-1.513875 2.269841,0.543628 1.777693,2.102472 6.941699,-5.906811 L 55.843224,1.8142604 53.288142,17.302747 45.552624,24.390851 56.072091,25.317575 65.037632,0.1655862 58.702976,28.718365 43.187131,27.550248 40.925059,29.567073 38.527641,29.391069 36.519345,28.220458 32.727853,29.90767 24.945374,29.389691 23.864607,27.927412 11.408175,28.227725 0.22767388,1.0104223 13.437095,24.852087 22.061781,25.819602 11.647279,20.408117 7.2638439,1.6241521 14.190866,17.755414 Z"
       id="path116607"
       sodipodi:nodetypes="ccccccccccccccccccccccccccccccccccc" /></g></svg>
