<?xml version="1.0" encoding="UTF-8" standalone="no"?>
<!-- Created with Inkscape (http://www.inkscape.org/) -->

<svg
   width="66mm"
   height="90mm"
   viewBox="0 0 66 90"
   version="1.1"
   id="svg4599"
   sodipodi:docname="spider_v1_1.svg"
   inkscape:version="1.2.2 (732a01da63, 2022-12-09)"
   xml:space="preserve"
   xmlns:inkscape="http://www.inkscape.org/namespaces/inkscape"
   xmlns:sodipodi="http://sodipodi.sourceforge.net/DTD/sodipodi-0.dtd"
   xmlns="http://www.w3.org/2000/svg"
   xmlns:svg="http://www.w3.org/2000/svg"><sodipodi:namedview
     id="namedview4601"
     pagecolor="#ffffff"
     bordercolor="#000000"
     borderopacity="0.25"
     inkscape:showpageshadow="2"
     inkscape:pageopacity="0.0"
     inkscape:pagecheckerboard="0"
     inkscape:deskcolor="#d1d1d1"
     inkscape:document-units="mm"
     showgrid="true"
     inkscape:zoom="1"
     inkscape:cx="2.5"
     inkscape:cy="401"
     inkscape:window-width="1920"
     inkscape:window-height="1009"
     inkscape:window-x="-8"
     inkscape:window-y="-8"
     inkscape:window-maximized="1"
     inkscape:current-layer="layer1"
     showguides="false"><inkscape:grid
       type="xygrid"
       id="grid53742"
       originx="0"
       originy="0" /></sodipodi:namedview><defs
     id="defs4596" /><g
     inkscape:label="Layer 1"
     inkscape:groupmode="layer"
     id="layer1"><path
       style="fill:#1e1e27;fill-opacity:1;stroke:none;stroke-width:0;stroke-linecap:round;stroke-linejoin:round;stroke-opacity:1;stroke-dasharray:none"
       d="m 26.652558,52.010706 -0.86771,8.158427 7.0837,8.015402 8.43299,-7.713095 -0.30856,-8.846271 4.99433,13.107531 -7.70982,24.942391 14.66051,-25.669571 -7.24281,-15.684097 12.82403,10.233823 -5.74033,25.126386 12.55648,-26.556034 -13.16955,-12.734589 13.65162,-21.74412 -6.87445,-16.1323722 1.41048,15.3952772 -11.83043,16.845161 2.84979,-21.487482 -7.85916,-17.01183253 3.7135,18.26604153 -4.0238,16.90725 -4.48656,-11.227566 -8.99506,-0.411609 -4.81592,10.65015 -6.82833,-16.8683 L 23.269308,0.60047079 13.017358,17.275125 18.928808,36.574723 6.7003175,21.501991 10.971228,6.1067142 1.8081675,21.806095 14.989888,42.29423 0.49097754,55.192577 14.317638,82.711047 7.3980275,57.179802 20.013928,47.954337 l -7.23416,15.050456 14.89552,26.609112 -8.60242,-25.522487 z"
       id="path116607"
       sodipodi:nodetypes="cccccccccccccccccccccccccccccccccccccccc" /></g></svg>
