<?xml version="1.0" encoding="UTF-8" standalone="no"?>
<!-- Created with Inkscape (http://www.inkscape.org/) -->

<svg
   width="66mm"
   height="90mm"
   viewBox="0 0 66 90"
   version="1.1"
   id="svg4599"
   sodipodi:docname="spider_ceiling_v2_1.svg"
   inkscape:version="1.2.2 (732a01da63, 2022-12-09)"
   xml:space="preserve"
   xmlns:inkscape="http://www.inkscape.org/namespaces/inkscape"
   xmlns:sodipodi="http://sodipodi.sourceforge.net/DTD/sodipodi-0.dtd"
   xmlns="http://www.w3.org/2000/svg"
   xmlns:svg="http://www.w3.org/2000/svg"><sodipodi:namedview
     id="namedview4601"
     pagecolor="#ffffff"
     bordercolor="#000000"
     borderopacity="0.25"
     inkscape:showpageshadow="2"
     inkscape:pageopacity="0.0"
     inkscape:pagecheckerboard="0"
     inkscape:deskcolor="#d1d1d1"
     inkscape:document-units="mm"
     showgrid="true"
     inkscape:zoom="2"
     inkscape:cx="80.25"
     inkscape:cy="167.5"
     inkscape:window-width="1920"
     inkscape:window-height="1009"
     inkscape:window-x="-8"
     inkscape:window-y="-8"
     inkscape:window-maximized="1"
     inkscape:current-layer="layer1"
     showguides="false"><inkscape:grid
       type="xygrid"
       id="grid53742"
       originx="0"
       originy="0" /></sodipodi:namedview><defs
     id="defs4596" /><g
     inkscape:label="Layer 1"
     inkscape:groupmode="layer"
     id="layer1"><path
       style="fill:#1e1e27;fill-opacity:1;stroke:none;stroke-width:0;stroke-linecap:round;stroke-linejoin:round;stroke-dasharray:none;stroke-opacity:1"
       d="m 23.717045,44.408745 3.087166,-3.249587 -8.883912,-6.932954 2.50144,-13.862102 0.735595,12.764853 9.544753,7.662629 4.798331,0.434881 8.524412,-6.638273 0.859425,-13.902772 2.165916,14.705864 -7.566365,6.721478 1.800338,-1.513875 2.269841,0.543628 1.777693,2.102472 5.48649,-2.070352 3.96672,-21.897875 -1.232166,23.955154 -6.280309,3.251645 7.60905,3.043391 11.479086,-31.898864 -8.848198,36.754862 -12.605428,-4.739992 -2.262072,2.016825 -2.397418,-0.176004 -2.008296,-1.170611 -3.791492,1.687212 -7.782479,-0.517979 -2.006809,-1.329987 -8.619973,2.946146 L 0.62454883,18.605214 17.935012,48.532295 23.781573,47.91231 16.40978,43.69145 10.835719,18.689777 l 8.779106,23.14272 z"
       id="path116607"
       sodipodi:nodetypes="cccccccccccccccccccccccccccccccccccc" /></g></svg>
