<?xml version="1.0" encoding="UTF-8" standalone="no"?>
<!-- Created with Inkscape (http://www.inkscape.org/) -->

<svg
   width="320mm"
   height="220mm"
   viewBox="0 0 320 220"
   version="1.1"
   id="svg4599"
   sodipodi:docname="text_bubble_yum_v2_1.svg"
   inkscape:version="1.2.2 (732a01da63, 2022-12-09)"
   xml:space="preserve"
   xmlns:inkscape="http://www.inkscape.org/namespaces/inkscape"
   xmlns:sodipodi="http://sodipodi.sourceforge.net/DTD/sodipodi-0.dtd"
   xmlns="http://www.w3.org/2000/svg"
   xmlns:svg="http://www.w3.org/2000/svg"><sodipodi:namedview
     id="namedview4601"
     pagecolor="#ffffff"
     bordercolor="#000000"
     borderopacity="0.25"
     inkscape:showpageshadow="2"
     inkscape:pageopacity="0.0"
     inkscape:pagecheckerboard="0"
     inkscape:deskcolor="#d1d1d1"
     inkscape:document-units="mm"
     showgrid="false"
     inkscape:zoom="0.22519496"
     inkscape:cx="82.15104"
     inkscape:cy="310.84177"
     inkscape:window-width="1920"
     inkscape:window-height="1009"
     inkscape:window-x="-8"
     inkscape:window-y="-8"
     inkscape:window-maximized="1"
     inkscape:current-layer="layer1"
     showguides="true"><sodipodi:guide
       position="-155.28359,7.0642721"
       orientation="1,0"
       id="guide67647"
       inkscape:locked="false" /><sodipodi:guide
       position="-102.52459,8.9351621"
       orientation="1,0"
       id="guide67649"
       inkscape:locked="false" /><inkscape:grid
       type="xygrid"
       id="grid93629"
       originx="0"
       originy="0" /></sodipodi:namedview><defs
     id="defs4596" /><g
     inkscape:label="Layer 1"
     inkscape:groupmode="layer"
     id="layer1"><path
       id="path114209"
       style="fill:#ffb42a;fill-opacity:1;stroke:#190d24;stroke-width:6;stroke-linecap:round;stroke-linejoin:round;stroke-dasharray:none;stroke-opacity:1;paint-order:normal"
       inkscape:transform-center-x="-7.4932018"
       inkscape:transform-center-y="1.1112455"
       d="M 285.70301,153.22532 203.01693,146.48243 190.33682,202.50247 162.21126,163.34508 89.245839,210.88644 79.590858,152.41233 7.0932852,160.67365 48.667063,97.909606 30.099931,56.784197 111.56381,59.942383 129.25036,7.7079443 171.81261,45.19377 262.88694,8.3482591 242.42602,61.961107 306.2048,75.701236 246.55718,104.08492 Z"
       sodipodi:nodetypes="ccccccccccccccccc" /><path
       style="fill:#fffadc;fill-opacity:1;stroke:#190d24;stroke-width:6;stroke-linecap:round;stroke-linejoin:round;stroke-dasharray:none;stroke-opacity:1;paint-order:normal"
       d="m 241.38053,111.45354 12.54623,-1.4805 4.85523,14.45877 -11.19891,5.53339 -8.89909,-7.68716 z"
       id="path106115"
       sodipodi:nodetypes="cccccc" /><path
       style="fill:#fffadc;fill-opacity:1;stroke:#190d24;stroke-width:6;stroke-linecap:round;stroke-linejoin:round;stroke-dasharray:none;stroke-opacity:1;paint-order:normal"
       d="m 236.02485,43.762227 26.87597,-1.721894 -7.11917,53.313614 -16.47378,1.335651 z"
       id="path106113"
       sodipodi:nodetypes="ccccc" /><path
       style="fill:#fffadc;fill-opacity:1;stroke:#190d24;stroke-width:6;stroke-linecap:round;stroke-linejoin:round;stroke-dasharray:none;stroke-opacity:1;paint-order:normal"
       d="m 156.64082,129.30737 -8.58545,-65.146962 24.53982,-4.944625 14.33672,29.563265 6.23617,-33.533258 28.74917,-4.894098 5.05954,76.861068 -21.30024,0.89432 -4.38222,-41.71735 -7.49658,40.29686 -6.94211,1.70568 -16.02524,-37.771908 7.97684,39.266978 z"
       id="path106111"
       sodipodi:nodetypes="cccccccccccccc" /><path
       style="fill:#fffadc;fill-opacity:1;stroke:#190d24;stroke-width:6;stroke-linecap:round;stroke-linejoin:round;stroke-dasharray:none;stroke-opacity:1;paint-order:normal"
       d="m 83.139612,92.530504 20.257898,-6.075793 9.6195,49.868029 12.2778,-6.61959 -7.08212,-45.937401 20.72814,-8.199946 3.51655,63.680427 -8.38832,7.29175 -21.55476,8.46695 -17.252358,-11.21384 z"
       id="path106109"
       sodipodi:nodetypes="ccccccccccc" /><path
       style="fill:#fffadc;fill-opacity:1;stroke:#190d24;stroke-width:6;stroke-linecap:round;stroke-linejoin:round;stroke-dasharray:none;stroke-opacity:1;paint-order:normal"
       d="M 20.097497,107.91065 55.181538,134.14199 66.404117,164.36091 83.756815,153.01724 70.268656,127.0422 77.573359,78.059508 58.332141,83.823377 55.116828,111.78138 36.890521,92.39439 Z"
       id="path106107"
       sodipodi:nodetypes="cccccccccc" /></g></svg>
