<?xml version="1.0" encoding="UTF-8" standalone="no"?>
<!-- Created with Inkscape (http://www.inkscape.org/) -->

<svg
   width="200mm"
   height="260mm"
   viewBox="0 0 200 260"
   version="1.1"
   id="svg4599"
   sodipodi:docname="trash_can_short_v1_1.svg"
   inkscape:version="1.2.2 (732a01da63, 2022-12-09)"
   xml:space="preserve"
   xmlns:inkscape="http://www.inkscape.org/namespaces/inkscape"
   xmlns:sodipodi="http://sodipodi.sourceforge.net/DTD/sodipodi-0.dtd"
   xmlns="http://www.w3.org/2000/svg"
   xmlns:svg="http://www.w3.org/2000/svg"><sodipodi:namedview
     id="namedview4601"
     pagecolor="#ffffff"
     bordercolor="#000000"
     borderopacity="0.25"
     inkscape:showpageshadow="2"
     inkscape:pageopacity="0.0"
     inkscape:pagecheckerboard="0"
     inkscape:deskcolor="#d1d1d1"
     inkscape:document-units="mm"
     showgrid="false"
     inkscape:zoom="0.5"
     inkscape:cx="532"
     inkscape:cy="758"
     inkscape:window-width="1920"
     inkscape:window-height="1009"
     inkscape:window-x="-8"
     inkscape:window-y="-8"
     inkscape:window-maximized="1"
     inkscape:current-layer="layer1" /><defs
     id="defs4596" /><g
     inkscape:label="Layer 1"
     inkscape:groupmode="layer"
     id="layer1"><path
       style="fill:#4d4d4d;fill-opacity:1;stroke:none;stroke-width:0;stroke-linecap:round;stroke-linejoin:round;stroke-dasharray:none"
       d="m 5.9868373,78.73868 16.8379797,13.470376 32.553429,8.980254 46.273814,3.74177 46.27381,-3.74177 32.55343,-8.980254 16.83798,-13.470376 v 0 153.45841 0 l -16.83798,13.47039 -32.55343,8.98026 -46.27381,3.74177 -46.273814,-3.74177 -32.553429,-8.98026 -16.8379797,-13.47039"
       id="path109737"
       sodipodi:nodetypes="cccccccccccccccc" /><path
       style="fill:#808080;fill-opacity:1;stroke:none;stroke-width:0;stroke-linecap:round;stroke-linejoin:round;stroke-dasharray:none"
       d="m 5.9868373,173.98869 16.8379797,13.47038 32.553429,8.98025 46.273814,3.74177 46.27381,-3.74177 32.55343,-8.98025 16.83798,-13.47038 v 0 26.45841 0 l -16.83798,13.47039 -32.55343,8.98026 -46.27381,3.74177 L 55.378246,222.89775 22.824817,213.91749 5.9868373,200.4471"
       id="path111199"
       sodipodi:nodetypes="cccccccccccccccc" /><path
       style="fill:#808080;fill-opacity:1;stroke:none;stroke-width:0;stroke-linecap:round;stroke-linejoin:round;stroke-dasharray:none"
       d="m 5.9868373,110.48865 16.8379797,13.47038 32.553429,8.98025 46.273814,3.74177 46.27381,-3.74177 32.55343,-8.98025 16.83798,-13.47038 v 0 26.45841 0 l -16.83798,13.47039 -32.55343,8.98026 -46.27381,3.74177 -46.273814,-3.74177 -32.553429,-8.98026 -16.8379797,-13.47039"
       id="path111927"
       sodipodi:nodetypes="cccccccccccccccc" /></g></svg>
